<svg xmlns="http://www.w3.org/2000/svg" xmlns:xlink="http://www.w3.org/1999/xlink" version="1.1" width="414pt" height="118pt" viewBox="0 0 414 118">
<path transform="matrix(.1,0,0,-.1,0,118)" d="M4139.18 166.938V10.2383H4020.88C4020.88 10.2383 3755.28-3.47266 3748.98 280.238L3747.78 689.039H3301.08L3300.08 12.0391 3142.58 11.9375 3144.18 689.738H2976.28L2975.98 848.336 3143.98 848.438C3143.98 848.438 3118.98 1141.54 3388.18 1170.94L3501.08 1170.54 3500.88 1010.24 3407.77 1011.54C3407.77 1011.54 3283.98 1012.74 3302.78 846.539H3905.28V279.039C3905.28 279.039 3897.77 161.535 4029.18 168.637L4139.18 166.938" fill="#9dc43d"/>
<path transform="matrix(.1,0,0,-.1,0,118)" d="M3748.89 1016.08H3905.062V1174.385H3748.89Z" fill="#ef4036"/>
<path transform="matrix(.1,0,0,-.1,0,118)" d="M37.9375 345.211H74.5391V381.809H37.9375V345.211ZM42.6484 11.1797H70.3594V272.551H42.6484V11.1797ZM387.648 11.1797V183.68C387.648 213.309 379.879 236.66 364.387 253.73 348.879 270.801 325.969 279.34 295.641 279.34 286.59 279.34 277.539 278.039 268.469 275.43 259.406 272.813 250.961 269.148 243.129 264.449 235.277 259.75 228.219 254.078 221.938 247.461 215.668 240.84 210.789 233.34 207.297 224.98L204.168 272.551H181.168V11.1797H207.297V141.871C207.297 155.813 208.777 169.48 211.75 182.91 214.699 196.32 219.59 208.25 226.391 218.711 233.191 229.16 242.148 237.609 253.309 244.059 264.469 250.5 278.059 253.73 294.09 253.73 318.129 253.73 335.391 247.539 345.828 235.18 356.289 222.801 361.52 205.121 361.52 182.121V11.1797H387.648ZM621.84 388.59C615.57 389.641 609.289 390.43 603.016 390.961 596.75 391.469 589.781 391.73 582.109 391.73 569.91 391.73 559.188 389.82 549.957 385.988 540.73 382.141 533.051 376.84 526.957 370.039 520.848 363.238 516.25 355.41 513.109 346.52 509.969 337.633 508.41 328.301 508.41 318.551V272.551H456.129V248.5H508.41V11.1797H534.539V248.5H616.609V272.551H534.539V317.5C534.539 351.301 551.098 368.199 584.199 368.199 591.855 368.199 598.75 367.871 604.84 367.16 610.938 366.461 616.609 365.777 621.84 365.07V388.59ZM868.047 201.461C862.469 218.879 852.887 234.391 839.301 247.98 830.219 257.051 819.336 264.531 806.617 270.461 793.898 276.391 779.348 279.34 762.98 279.34 746.59 279.34 732.047 276.391 719.328 270.461 706.598 264.531 695.707 257.051 686.66 247.98 673.07 234.391 663.477 218.879 657.906 201.461 652.328 184.031 649.547 164.172 649.547 141.871 649.547 119.559 652.328 99.6992 657.906 82.2813 663.477 64.8398 673.07 49.3516 686.66 35.7422 695.707 26.6797 706.598 19.2031 719.328 13.2695 732.047 7.34766 746.59 4.37891 762.98 4.37891 779.348 4.37891 793.898 7.34766 806.617 13.2695 819.336 19.2031 830.219 26.6797 839.301 35.7422 852.887 49.3516 862.469 64.8398 868.047 82.2813 873.617 99.6992 876.406 119.559 876.406 141.871 876.406 164.172 873.617 184.031 868.047 201.461ZM844 93.7813C840.168 78.793 832.309 65.1992 820.48 53 813.508 46.0313 805.316 40.4609 795.91 36.2813 786.5 32.0977 775.52 30 762.98 30 750.426 30 739.457 32.0977 730.051 36.2813 720.629 40.4609 712.438 46.0313 705.477 53 693.617 65.1992 685.777 78.793 681.949 93.7813 678.109 108.75 676.207 124.789 676.207 141.871 676.207 158.941 678.109 174.969 681.949 189.961 685.777 204.941 693.617 218.531 705.477 230.73 712.438 237.711 720.629 243.27 730.051 247.461 739.457 251.641 750.426 253.73 762.98 253.73 775.52 253.73 786.5 251.641 795.91 247.461 805.316 243.27 813.508 237.711 820.48 230.73 832.309 218.531 840.168 204.941 844 189.961 847.816 174.969 849.746 158.941 849.746 141.871 849.746 124.789 847.816 108.75 844 93.7813ZM1097.52 273.59C1093.34 274.301 1089.06 274.719 1084.72 274.898 1080.34 275.07 1076.09 275.16 1071.9 275.16 1053.43 275.16 1036.44 270.461 1020.95 261.051 1005.43 251.641 994.719 237.871 988.777 219.75L985.648 272.551H962.656V11.1797H988.777V136.641C988.777 150.23 990.098 163.82 992.707 177.41 995.316 191 999.77 203.199 1006.04 214 1012.31 224.801 1020.75 233.531 1031.4 240.141 1042.02 246.762 1055.52 250.07 1071.9 250.07 1076.09 250.07 1080.34 249.902 1084.72 249.551 1089.06 249.203 1093.34 248.5 1097.52 247.461V273.59ZM1528.76 11.1797V183.68C1528.76 197.621 1527.11 210.422 1523.8 222.109 1520.49 233.77 1515.35 243.891 1508.38 252.43 1501.41 260.961 1492.44 267.59 1481.46 272.289 1470.49 277 1457.32 279.34 1441.99 279.34 1420.38 279.34 1402.7 274.02 1388.94 263.398 1375.17 252.77 1364.8 239.27 1357.83 222.891 1352.6 239.961 1343.28 253.641 1329.86 263.93 1316.45 274.199 1298.23 279.34 1275.23 279.34 1256.42 279.34 1240.21 274.461 1226.62 264.711 1213.03 254.961 1202.75 242.578 1195.78 227.59L1192.64 272.551H1169.64V11.1797H1195.78V141.871C1195.78 160.68 1198.05 178.461 1202.58 195.18 1207.11 211.91 1215.3 225.848 1227.14 237 1233.08 242.578 1239.78 246.93 1247.27 250.07 1254.77 253.211 1263.56 254.773 1273.67 254.773 1296.33 254.773 1312.44 248.332 1322.02 235.43 1331.61 222.543 1336.4 204.781 1336.4 182.121V11.1797H1363.06V159.117C1363.06 174.801 1365.66 189.262 1370.89 202.5 1376.12 215.742 1383.79 227.25 1393.9 237 1399.83 242.578 1406.53 246.93 1414.03 250.07 1421.51 253.211 1430.31 254.773 1440.42 254.773 1463.07 254.773 1479.1 248.332 1488.51 235.43 1497.92 222.543 1502.63 204.781 1502.63 182.121V11.1797H1528.76ZM1848.68 34.1914C1846.92 33.8398 1844.5 33.6484 1841.36 33.6484 1832.29 33.6484 1826.62 36.0898 1824.37 40.9805 1822.09 45.8594 1820.96 52.8203 1820.96 61.8789V181.07C1820.96 189.781 1820.62 198.32 1819.92 206.68 1819.23 215.051 1817.29 223.238 1814.18 231.25 1810.69 240.309 1805.8 247.898 1799.54 254 1793.26 260.082 1786.13 265.051 1778.1 268.891 1770.09 272.719 1761.55 275.43 1752.5 277 1743.42 278.559 1734.54 279.34 1725.84 279.34 1711.54 279.34 1698.46 277.52 1686.61 273.859 1674.79 270.199 1664.4 264.879 1655.53 257.91 1646.64 250.938 1639.49 242.402 1634.1 232.301 1628.69 222.191 1625.47 210.52 1624.41 197.277H1650.56C1651.94 216.789 1659.63 231.25 1673.55 240.66 1687.5 250.07 1704.91 254.773 1725.84 254.773 1745.69 254.773 1762.17 250.238 1775.22 241.18 1788.31 232.121 1794.83 216.789 1794.83 195.18V169.57L1698.65 162.781C1672.51 161.031 1651.35 153.449 1635.15 140.039 1618.95 126.621 1610.83 108.23 1610.83 84.8906 1610.83 72.3398 1613.11 61.1016 1617.64 51.1719 1622.16 41.25 1628.52 32.7891 1636.7 25.8203 1644.89 18.8398 1654.48 13.5391 1665.46 9.87891 1676.45 6.22266 1688.19 4.37891 1700.73 4.37891 1710.85 4.37891 1720.79 5.60938 1730.54 8.05078 1740.28 10.4922 1749.36 14.0586 1757.71 18.7695 1766.07 23.4805 1773.5 29.3086 1779.93 36.2813 1786.38 43.25 1791.35 51.4414 1794.83 60.8398 1794.83 53.8672 1795.43 47.3281 1796.67 41.25 1797.88 35.1406 1800.06 29.75 1803.19 25.0391 1806.34 20.3281 1810.6 16.5898 1816.01 13.8008 1821.41 11.0195 1828.11 9.62109 1836.12 9.62109 1839.26 9.62109 1841.36 9.69922 1842.4 9.87891 1843.44 10.0586 1845.54 10.4922 1848.68 11.1797V34.1914ZM1794.83 131.941C1794.83 119.391 1793.09 106.918 1789.6 94.5703 1786.13 82.1797 1780.71 71.1211 1773.4 61.3711 1766.07 51.6094 1756.58 43.668 1744.9 37.5898 1733.23 31.4688 1719.21 28.4375 1702.83 28.4375 1684.01 28.4375 1668.41 33.1289 1656.04 42.5508 1643.67 51.9492 1637.49 66.0625 1637.49 84.8906 1637.49 100.91 1643.23 113.719 1654.74 123.32 1666.23 132.891 1681.74 138.383 1701.25 139.781L1794.83 145.531V131.941ZM2052.02 36.8008C2045.05 35.4102 2038.17 34.2578 2031.38 33.4102 2024.57 32.5313 2017.7 32.0977 2010.72 32.0977 2002.01 32.0977 1994.85 33.4102 1989.29 36.0195 1983.71 38.6211 1979.27 42.2891 1975.96 46.9883 1972.64 51.6992 1970.38 57.2578 1969.17 63.7305 1967.94 70.1602 1967.32 77.2188 1967.32 84.8906V248.5H2048.36V272.551H1967.32V350.949L1941.2 344.68V272.551H1888.92V248.5H1941.2V83.8398C1941.2 61.1797 1946.33 42.8125 1956.61 28.6914 1966.89 14.582 1984.24 7.53125 2008.62 7.53125 2015.95 7.53125 2023.16 8.12891 2030.33 9.35938 2037.46 10.582 2044.71 12.0508 2052.02 13.8008V36.8008ZM2124.67 345.211H2161.27V381.809H2124.67V345.211ZM2129.38 11.1797H2157.09V272.551H2129.38V11.1797ZM2486.93 11.1797 2381.86 171.66 2474.38 272.551H2441.46L2294.57 113.641V388.59H2267.91V11.1797H2294.57V76L2363.04 150.75 2455.04 11.1797H2486.93" fill="#231f20"/>
<path transform="matrix(.1,0,0,-.1,0,118)" d="M170.719 960.648C164.438 961.684 158.168 962.484 151.898 963.004 145.617 963.527 138.641 963.777 130.988 963.777 118.789 963.777 108.066 961.867 98.8398 958.023 89.5977 954.195 81.9375 948.887 75.8516 942.098 69.7383 935.297 65.1172 927.457 61.9805 918.566 58.8477 909.684 57.2813 900.355 57.2813 890.594V844.598H5.01953V820.555H57.2813V583.227H83.418V820.555H165.488V844.598H83.418V889.555C83.418 923.355 99.957 940.254 133.078 940.254 140.738 940.254 147.617 939.914 153.73 939.215 159.828 938.516 165.488 937.824 170.719 937.125V960.648ZM442.547 606.238C440.801 605.887 438.371 605.707 435.23 605.707 426.168 605.707 420.508 608.145 418.23 613.023 415.961 617.914 414.848 624.875 414.848 633.938V753.125C414.848 761.836 414.488 770.375 413.801 778.734 413.086 787.105 411.18 795.285 408.039 803.305 404.559 812.367 399.68 819.934 393.41 826.047 387.148 832.137 379.988 837.105 371.98 840.945 363.957 844.773 355.418 847.477 346.355 849.047 337.297 850.613 328.41 851.395 319.699 851.395 305.406 851.395 292.348 849.578 280.5 845.906 268.641 842.254 258.277 836.934 249.391 829.965 240.508 822.984 233.367 814.457 227.961 804.355 222.559 794.234 219.34 782.574 218.301 769.324H244.43C245.828 788.844 253.48 803.305 267.43 812.715 281.367 822.113 298.797 826.824 319.699 826.824 339.559 826.824 356.027 822.305 369.09 813.234 382.168 804.176 388.699 788.844 388.699 767.234V741.617L292.52 734.824C266.379 733.082 245.207 725.496 229.008 712.086 212.801 698.664 204.699 680.285 204.699 656.934 204.699 644.395 206.969 633.152 211.5 623.223 216.027 613.293 222.391 604.844 230.566 597.875 238.758 590.895 248.348 585.586 259.328 581.926 270.297 578.266 282.059 576.438 294.609 576.438 304.707 576.438 314.648 577.656 324.398 580.094 334.168 582.535 343.219 586.105 351.59 590.816 359.949 595.516 367.348 601.355 373.809 608.324 380.25 615.297 385.219 623.484 388.699 632.895 388.699 625.914 389.301 619.375 390.531 613.293 391.75 607.188 393.93 601.793 397.07 597.094 400.211 592.387 404.457 588.637 409.879 585.844 415.277 583.066 421.98 581.664 430.008 581.664 433.148 581.664 435.23 581.746 436.277 581.926 437.328 582.105 439.406 582.535 442.547 583.227V606.238ZM388.699 703.988C388.699 691.434 386.957 678.977 383.48 666.613 379.988 654.234 374.586 643.168 367.27 633.414 359.949 623.656 350.457 615.734 338.77 609.637 327.098 603.527 313.078 600.477 296.699 600.477 277.879 600.477 262.277 605.184 249.91 614.598 237.551 624.004 231.359 638.113 231.359 656.934 231.359 672.965 237.117 685.766 248.605 695.367 260.105 704.945 275.617 710.434 295.137 711.824L388.699 717.574V703.988ZM743.637 583.227 638.559 743.707 731.09 844.598H698.148L551.27 685.688V960.648H524.609V583.227H551.27V648.055L619.738 722.805 711.75 583.227H743.637ZM1006.04 583.754V845.125H979.91V714.434C979.91 700.145 978.43 686.285 975.469 672.883 972.5 659.453 967.629 647.527 960.828 637.074 954.039 626.625 945.066 618.254 933.91 611.977 922.758 605.707 909.168 602.574 893.137 602.574 869.09 602.574 851.84 608.766 841.387 621.137 830.93 633.496 825.711 651.184 825.711 674.188V845.125H799.57V672.613C799.57 642.996 807.32 619.645 822.84 602.574 838.328 585.496 861.246 576.953 891.566 576.953 900.629 576.953 909.68 578.184 918.75 580.625 927.809 583.066 936.27 586.633 944.109 591.336 951.949 596.047 958.91 601.793 965.02 608.586 971.109 615.383 976.066 622.957 979.91 631.316L983.039 583.754H1006.04ZM1189.01 606.238C1185.16 605.535 1181.76 605.184 1178.82 605.184H1166.53C1155.37 605.184 1148.05 608.145 1144.57 614.066 1141.08 620.004 1139.34 627.484 1139.34 636.543V960.648H1113.21V635.504C1113.21 616.344 1117.73 602.316 1126.79 593.422 1135.85 584.547 1148.76 580.094 1165.48 580.094 1171.05 580.094 1175.68 580.445 1179.34 581.137 1183 581.844 1186.21 582.535 1189.01 583.227V606.238ZM1389.73 608.844C1382.75 607.457 1375.87 606.316 1369.08 605.453 1362.28 604.574 1355.4 604.145 1348.43 604.145 1339.71 604.145 1332.57 605.453 1327 608.066 1321.42 610.676 1316.97 614.348 1313.67 619.047 1310.36 623.754 1308.08 629.316 1306.87 635.777 1305.65 642.203 1305.05 649.273 1305.05 656.934V820.555H1386.07V844.598H1305.05V923.004L1278.91 916.734V844.598H1226.64V820.555H1278.91V655.887C1278.91 633.234 1284.05 614.855 1294.33 600.746 1304.61 586.633 1321.95 579.578 1346.34 579.578 1353.66 579.578 1360.89 580.188 1368.03 581.406 1375.18 582.625 1382.41 584.105 1389.73 585.844V608.844ZM1680.88 606.238C1679.14 605.887 1676.69 605.707 1673.57 605.707 1664.5 605.707 1658.84 608.145 1656.58 613.023 1654.3 617.914 1653.17 624.875 1653.17 633.938V753.125C1653.17 761.836 1652.82 770.375 1652.13 778.734 1651.43 787.105 1649.51 795.285 1646.39 803.305 1642.91 812.367 1638.01 819.934 1631.75 826.047 1625.47 832.137 1618.34 837.105 1610.32 840.945 1602.29 844.773 1593.77 847.477 1584.69 849.047 1575.63 850.613 1566.76 851.395 1558.04 851.395 1543.76 851.395 1530.68 849.578 1518.84 845.906 1506.99 842.254 1496.63 836.934 1487.75 829.965 1478.85 822.984 1471.7 814.457 1466.31 804.355 1460.9 794.234 1457.67 782.574 1456.63 769.324H1482.77C1484.16 788.844 1491.83 803.305 1505.76 812.715 1519.7 822.113 1537.14 826.824 1558.04 826.824 1577.91 826.824 1594.38 822.305 1607.45 813.234 1620.51 804.176 1627.03 788.844 1627.03 767.234V741.617L1530.86 734.824C1504.72 733.082 1483.56 725.496 1467.36 712.086 1451.14 698.664 1443.04 680.285 1443.04 656.934 1443.04 644.395 1445.31 633.152 1449.84 623.223 1454.36 613.293 1460.73 604.844 1468.92 597.875 1477.11 590.895 1486.7 585.586 1497.67 581.926 1508.64 578.266 1520.41 576.438 1532.96 576.438 1543.06 576.438 1553 577.656 1562.75 580.094 1572.51 582.535 1581.57 586.105 1589.93 590.816 1598.3 595.516 1605.7 601.355 1612.15 608.324 1618.59 615.297 1623.56 623.484 1627.03 632.895 1627.03 625.914 1627.64 619.375 1628.88 613.293 1630.1 607.188 1632.27 601.793 1635.41 597.094 1638.53 592.387 1642.81 588.637 1648.22 585.844 1653.61 583.066 1660.32 581.664 1668.33 581.664 1671.47 581.664 1673.57 581.746 1674.61 581.926 1675.65 582.105 1677.75 582.535 1680.88 583.227V606.238ZM1627.03 703.988C1627.03 691.434 1625.3 678.977 1621.82 666.613 1618.34 654.234 1612.93 643.168 1605.61 633.414 1598.3 623.656 1588.8 615.734 1577.13 609.637 1565.46 603.527 1551.42 600.477 1535.05 600.477 1516.23 600.477 1500.63 605.184 1488.26 614.598 1475.89 624.004 1469.7 638.113 1469.7 656.934 1469.7 672.965 1475.46 685.766 1486.96 695.367 1498.45 704.945 1513.95 710.434 1533.47 711.824L1627.03 717.574V703.988ZM1495.31 908.895H1526.67V941.824H1495.31V908.895ZM1591.5 908.895H1622.85V941.824H1591.5V908.895ZM1884.22 608.844C1877.24 607.457 1870.39 606.316 1863.58 605.453 1856.79 604.574 1849.91 604.145 1842.94 604.145 1834.23 604.145 1827.06 605.453 1821.49 608.066 1815.93 610.676 1811.48 614.348 1808.16 619.047 1804.85 623.754 1802.6 629.316 1801.38 635.777 1800.15 642.203 1799.54 649.273 1799.54 656.934V820.555H1880.55V844.598H1799.54V923.004L1773.42 916.734V844.598H1721.13V820.555H1773.42V655.887C1773.42 633.234 1778.53 614.855 1788.83 600.746 1799.11 586.633 1816.45 579.578 1840.84 579.578 1848.15 579.578 1855.38 580.188 1862.53 581.406 1869.68 582.625 1876.89 584.105 1884.22 585.844V608.844ZM2207.26 960.648C2201 961.684 2194.72 962.484 2188.46 963.004 2182.18 963.527 2175.21 963.777 2167.55 963.777 2155.35 963.777 2144.62 961.867 2135.4 958.023 2126.17 954.195 2118.48 948.887 2112.39 942.098 2106.31 935.297 2101.69 927.457 2098.54 918.566 2095.41 909.684 2093.85 900.355 2093.85 890.594V844.598H2041.56V820.555H2093.85V583.227H2119.99V820.555H2202.05V844.598H2119.99V889.555C2119.99 923.355 2136.53 940.254 2169.65 940.254 2177.29 940.254 2184.19 939.914 2190.27 939.215 2196.38 938.516 2202.05 937.824 2207.26 937.125V960.648ZM2461.34 583.754V845.125H2435.19V714.434C2435.19 700.145 2433.69 686.285 2430.74 672.883 2427.77 659.453 2422.9 647.527 2416.12 637.074 2409.32 626.625 2400.33 618.254 2389.19 611.977 2378.03 605.707 2364.44 602.574 2348.41 602.574 2324.37 602.574 2307.11 608.766 2296.67 621.137 2286.21 633.496 2280.98 651.184 2280.98 674.188V845.125H2254.85V672.613C2254.85 642.996 2262.6 619.645 2278.11 602.574 2293.6 585.496 2316.53 576.953 2346.85 576.953 2355.91 576.953 2364.96 578.184 2374.03 580.625 2383.08 583.066 2391.54 586.633 2399.38 591.336 2407.22 596.047 2414.2 601.793 2420.3 608.586 2426.38 615.383 2431.35 622.957 2435.19 631.316L2438.33 583.754H2461.34ZM2293.01 908.895H2324.38V941.824H2293.01V908.895ZM2389.19 908.895H2420.56V941.824H2389.19V908.895ZM2704.92 845.645C2700.74 846.344 2696.46 846.766 2692.11 846.953 2687.75 847.125 2683.47 847.215 2679.29 847.215 2660.83 847.215 2643.84 842.504 2628.33 833.098 2612.82 823.695 2602.11 809.926 2596.2 791.797L2593.05 844.598H2570.06V583.227H2596.2V708.688C2596.2 722.277 2597.49 735.863 2600.1 749.453 2602.72 763.055 2607.16 775.254 2613.43 786.055 2619.71 796.855 2628.15 805.566 2638.79 812.184 2649.42 818.805 2662.91 822.113 2679.29 822.113 2683.47 822.113 2687.75 821.945 2692.11 821.594 2696.46 821.254 2700.74 820.555 2704.92 819.504V845.645" fill="#231f20"/>
</svg>
