<svg xmlns="http://www.w3.org/2000/svg" xmlns:xlink="http://www.w3.org/1999/xlink" version="1.1" width="339pt" height="55pt" viewBox="0 0 339 55">
<path transform="matrix(.1,0,0,-.1,0,55)" d="M647.25 393.984V131.594C647.25 94.1016 627.758 76.875 592.484 76.875H496.57C461.313 76.875 441.82 94.1016 441.82 131.594V393.984H160.707V543.918H87.2227V393.984H9.99609V319.758H87.2227V133.098C87.2227 52.8438 141.184 3.39844 215.434 3.39844H253.668L255.164 77.5977H215.434C180.215 77.5977 160.707 96.3477 160.707 133.098V319.758H368.34V131.594C368.34 52.1172 423.84 3.39844 496.57 3.39844H592.484C665.238 3.39844 720.707 52.1172 720.707 131.594V393.984H647.25" fill="#9dc43d"/>
<path transform="matrix(.1,0,0,-.1,0,55)" d="M928.457 264C905.051 264 895.992 278.867 895.992 300.766V380.074H870.813V391.645H895.992V426.406L908.559 429.418V391.645H947.605V380.074H908.559V301.262C908.559 286.406 912.578 275.813 929.477 275.813 936.273 275.813 942.563 276.855 949.355 278.109V267.02C942.316 265.508 935.52 264 928.457 264" fill="#231f20"/>
<path transform="matrix(.1,0,0,-.1,0,55)" d="M1078.26 325.676H982.09C982.348 311.078 987.117 297.504 995.168 287.926 1002.23 279.602 1012.05 274.578 1025.65 274.578 1036.73 274.578 1046.3 278.621 1053.09 285.66 1057.63 290.434 1061.15 295.984 1062.65 303.531H1075.73C1073.97 292.695 1068.7 283.879 1061.65 277.102 1052.6 268.047 1040 262.5 1025.65 262.5 1007.52 262.5 994.684 270.051 985.602 280.348 975.277 292.434 969.504 309.066 969.504 328.199 969.504 344.055 972.012 359.672 981.828 373.008 992.41 387.359 1007.02 394.906 1024.63 394.906 1058.62 394.906 1078.52 365.703 1078.52 333.992 1078.52 330.961 1078.26 328.727 1078.26 325.676ZM1024.63 383.07C998.691 383.07 982.348 362.188 982.348 337.281H1065.67C1065.18 361.191 1050.31 383.07 1024.63 383.07" fill="#231f20"/>
<path transform="matrix(.1,0,0,-.1,0,55)" d="M1159.84 262.5C1144.23 262.5 1131.63 268.52 1122.83 277.352 1109.73 290.434 1105.19 307.305 1105.19 328.727 1105.19 350.094 1109.73 366.965 1122.83 380.074 1131.63 388.879 1144.23 394.906 1159.84 394.906 1186.02 394.906 1205.41 377.813 1208.43 352.34H1195.34C1192.55 369.742 1178.96 382.566 1159.84 382.566 1147.74 382.566 1138.43 378.559 1131.88 371.758 1120.56 359.945 1118.03 345.066 1118.03 328.727 1118.03 312.324 1120.56 297.258 1131.88 285.406 1138.43 278.621 1147.74 274.844 1159.84 274.844 1179.22 274.844 1192.55 288.422 1195.6 305.535H1208.93C1205.66 281.117 1186.26 262.5 1159.84 262.5" fill="#231f20"/>
<path transform="matrix(.1,0,0,-.1,0,55)" d="M1330 265.766V348.086C1330 369.988 1320.44 383.07 1297.52 383.07 1266.57 383.07 1255.73 355.906 1255.73 328.727V265.766H1243.14V447.539H1255.73V368.48C1262.77 384.613 1280.66 394.906 1298.28 394.906 1327.22 394.906 1342.6 377.051 1342.6 348.848V265.766H1330" fill="#231f20"/>
<path transform="matrix(.1,0,0,-.1,0,55)" d="M1476.79 265.766V348.086C1476.79 369.988 1467.23 382.566 1444.3 382.566 1413.33 382.566 1402.53 355.906 1402.53 328.727V265.766H1389.93V391.645H1401.01L1402.53 368.746C1409.58 384.613 1427.46 394.906 1445.07 394.906 1474.03 394.906 1489.38 377.051 1489.38 348.848V265.766H1476.79" fill="#231f20"/>
<path transform="matrix(.1,0,0,-.1,0,55)" d="M1535.71 444.246H1553.32V426.641H1535.71V444.246ZM1537.98 391.645H1551.32V265.766H1537.98V391.645" fill="#231f20"/>
<path transform="matrix(.1,0,0,-.1,0,55)" d="M1683.5 277.59C1674.44 267.527 1659.33 262.5 1642.71 262.5 1625.6 262.5 1610.99 267.773 1601.42 278.621 1594.38 286.656 1591.34 293.695 1590.85 304.043H1603.68C1604.43 296.453 1607.71 289.934 1613.01 284.645 1620.29 277.59 1630.62 274.578 1642.71 274.578 1655.82 274.578 1666.13 277.59 1672.43 283.879 1676.94 288.422 1679.21 292.695 1679.21 299.996 1679.21 311.328 1671.16 320.898 1656.06 322.906L1631.63 326.188C1621.32 327.438 1610.23 330.727 1603.18 338.766 1598.65 344.055 1596.13 350.609 1596.13 358.684 1596.13 368.746 1600.42 377.051 1606.96 383.07 1616.03 391.426 1628.36 394.906 1641.46 394.906 1656.55 394.906 1670.9 390.145 1679.47 380.074 1685.25 373.27 1688.79 364.945 1689.05 356.918H1676.45C1675.96 360.938 1674.18 367.246 1670.16 372.008 1664.36 378.813 1654.54 383.07 1641.46 383.07 1631.63 383.07 1624.34 381.344 1618.79 377.313 1612.51 372.77 1608.98 366.719 1608.98 359.945 1608.98 349.359 1614.27 341.301 1633.39 338.766L1657.3 335.488C1680.97 332.242 1692.06 316.117 1692.06 300.766 1692.06 291.426 1689.05 283.879 1683.5 277.59" fill="#231f20"/>
<path transform="matrix(.1,0,0,-.1,0,55)" d="M1774.89 262.5C1759.28 262.5 1746.7 268.52 1737.9 277.352 1724.79 290.434 1720.25 307.305 1720.25 328.727 1720.25 350.094 1724.79 366.965 1737.9 380.074 1746.7 388.879 1759.28 394.906 1774.89 394.906 1801.07 394.906 1820.45 377.813 1823.48 352.34H1810.41C1807.63 369.742 1794.04 382.566 1774.89 382.566 1762.81 382.566 1753.48 378.559 1746.93 371.758 1735.62 359.945 1733.1 345.066 1733.1 328.727 1733.1 312.324 1735.62 297.258 1746.93 285.406 1753.48 278.621 1762.81 274.844 1774.89 274.844 1794.27 274.844 1807.63 288.422 1810.64 305.535H1823.99C1820.7 281.117 1801.32 262.5 1774.89 262.5" fill="#231f20"/>
<path transform="matrix(.1,0,0,-.1,0,55)" d="M1945.07 265.766V348.086C1945.07 369.988 1935.5 383.07 1912.58 383.07 1881.61 383.07 1870.81 355.906 1870.81 328.727V265.766H1858.19V447.539H1870.81V368.48C1877.84 384.613 1895.71 394.906 1913.33 394.906 1942.31 394.906 1957.66 377.051 1957.66 348.848V265.766H1945.07" fill="#231f20"/>
<path transform="matrix(.1,0,0,-.1,0,55)" d="M2102.93 325.676H2006.77C2007.01 311.078 2011.79 297.504 2019.84 287.926 2026.9 279.602 2036.73 274.578 2050.31 274.578 2061.38 274.578 2070.96 278.621 2077.76 285.66 2082.28 290.434 2085.81 295.984 2087.32 303.531H2100.42C2098.65 292.695 2093.35 283.879 2086.31 277.102 2077.24 268.047 2064.66 262.5 2050.31 262.5 2032.16 262.5 2019.35 270.051 2010.29 280.348 1999.97 292.434 1994.16 309.066 1994.16 328.199 1994.16 344.055 1996.68 359.672 2006.5 373.008 2017.08 387.359 2031.67 394.906 2049.31 394.906 2083.3 394.906 2103.18 365.703 2103.18 333.992 2103.18 330.961 2102.93 328.727 2102.93 325.676ZM2049.31 383.07C2023.37 383.07 2007.01 362.188 2007.01 337.281H2090.34C2089.83 361.191 2074.98 383.07 2049.31 383.07" fill="#231f20"/>
<path transform="matrix(.1,0,0,-.1,0,55)" d="M2280.68 266.023 2279.16 288.938C2272.11 272.813 2254.24 262.742 2236.61 262.742 2207.66 262.742 2192.3 280.621 2192.3 308.816V391.902H2204.89V309.566C2204.89 287.672 2214.45 275.078 2237.38 275.078 2268.32 275.078 2279.16 301.758 2279.16 328.949V391.902H2291.76V266.023H2280.68" fill="#231f20"/>
<path transform="matrix(.1,0,0,-.1,0,55)" d="M2428.48 265.766V348.086C2428.48 369.988 2418.9 382.566 2395.99 382.566 2365.02 382.566 2354.18 355.906 2354.18 328.727V265.766H2341.61V391.645H2352.68L2354.18 368.746C2361.24 384.613 2379.13 394.906 2396.74 394.906 2425.7 394.906 2441.05 377.051 2441.05 348.848V265.766H2428.48" fill="#231f20"/>
<path transform="matrix(.1,0,0,-.1,0,55)" d="M2487.39 444.246H2505.01V426.641H2487.39V444.246ZM2489.65 391.645H2502.97V265.766H2489.65V391.645" fill="#231f20"/>
<path transform="matrix(.1,0,0,-.1,0,55)" d="M2595.15 265.766H2582.29L2532.46 391.645H2546.8L2589.11 283.645 2629.62 391.645H2642.99L2595.15 265.766" fill="#231f20"/>
<path transform="matrix(.1,0,0,-.1,0,55)" d="M2768.07 325.676H2671.91C2672.15 311.078 2676.94 297.504 2684.99 287.926 2692.03 279.602 2701.87 274.578 2715.44 274.578 2726.55 274.578 2736.1 278.621 2742.89 285.66 2747.43 290.434 2750.95 295.984 2752.45 303.531H2765.55C2763.79 292.695 2758.51 283.879 2751.46 277.102 2742.38 268.047 2729.79 262.5 2715.44 262.5 2697.33 262.5 2684.47 270.051 2675.43 280.348 2665.1 292.434 2659.32 309.066 2659.32 328.199 2659.32 344.055 2661.82 359.672 2671.65 373.008 2682.24 387.359 2696.83 394.906 2714.44 394.906 2748.43 394.906 2768.32 365.703 2768.32 333.992 2768.32 330.961 2768.07 328.727 2768.07 325.676ZM2714.44 383.07C2688.54 383.07 2672.15 362.188 2672.15 337.281H2755.49C2754.99 361.191 2740.13 383.07 2714.44 383.07" fill="#231f20"/>
<path transform="matrix(.1,0,0,-.1,0,55)" d="M2858.46 380.82C2826.97 380.82 2818.44 352.629 2818.44 326.188V265.766H2805.83V391.645H2816.9L2818.44 366.23C2823.96 383.602 2840.82 392.91 2858.46 392.91 2862.48 392.91 2866.76 392.91 2870.8 392.152V379.555C2866.76 380.574 2862.48 380.82 2858.46 380.82" fill="#231f20"/>
<path transform="matrix(.1,0,0,-.1,0,55)" d="M2980.55 277.59C2971.51 267.527 2956.4 262.5 2939.76 262.5 2922.67 262.5 2908.05 267.773 2898.47 278.621 2891.41 286.656 2888.42 293.695 2887.92 304.043H2900.74C2901.5 296.453 2904.78 289.934 2910.07 284.645 2917.35 277.59 2927.68 274.578 2939.76 274.578 2952.88 274.578 2963.19 277.59 2969.46 283.879 2974.01 288.422 2976.28 292.695 2976.28 299.996 2976.28 311.328 2968.23 320.898 2953.1 322.906L2928.68 326.188C2918.35 327.438 2907.28 330.727 2900.25 338.766 2895.73 344.055 2893.2 350.609 2893.2 358.684 2893.2 368.746 2897.47 377.051 2904.01 383.07 2913.08 391.426 2925.41 394.906 2938.49 394.906 2953.62 394.906 2967.96 390.145 2976.54 380.074 2982.34 373.27 2985.84 364.945 2986.09 356.918H2973.5C2973 360.938 2971.25 367.246 2967.22 372.008 2961.4 378.813 2951.62 383.07 2938.49 383.07 2928.68 383.07 2921.39 381.344 2915.85 377.313 2909.56 372.77 2906.03 366.719 2906.03 359.945 2906.03 349.359 2911.33 341.301 2930.42 338.766L2954.37 335.488C2978.04 332.242 2989.12 316.117 2989.12 300.766 2989.12 291.426 2986.09 283.879 2980.55 277.59" fill="#231f20"/>
<path transform="matrix(.1,0,0,-.1,0,55)" d="M3027.15 444.246H3044.76V426.641H3027.15V444.246ZM3029.4 391.645H3042.76V265.766H3029.4V391.645" fill="#231f20"/>
<path transform="matrix(.1,0,0,-.1,0,55)" d="M3132.38 264C3108.97 264 3099.89 278.867 3099.89 300.766V380.074H3074.73V391.645H3099.89V426.406L3112.47 429.418V391.645H3151.5V380.074H3112.47V301.262C3112.47 286.406 3116.5 275.813 3133.37 275.813 3140.18 275.813 3146.46 276.855 3153.29 278.109V267.02C3146.23 265.508 3139.43 264 3132.38 264" fill="#231f20"/>
<path transform="matrix(.1,0,0,-.1,0,55)" d="M3284.96 264.988C3269.34 264.988 3265.05 276.328 3265.05 289.684 3258.25 271.797 3239.12 262.5 3219.73 262.5 3195.33 262.5 3176.41 277.102 3176.41 301.262 3176.41 323.66 3193.79 337.016 3218.75 338.766L3265.05 342.063V354.387C3265.05 375.297 3250.94 383.07 3231.82 383.07 3211.94 383.07 3196.83 374.031 3195.56 355.398H3182.98C3184.76 380.82 3204.63 394.906 3231.82 394.906 3248.94 394.906 3267.57 389.125 3274.38 371.758 3277.39 363.953 3277.64 355.906 3277.64 347.578V290.18C3277.64 281.617 3278.91 276.602 3287.47 276.602 3288.97 276.602 3289.73 276.602 3290.99 276.855V265.766C3287.96 265.273 3287.96 264.988 3284.96 264.988ZM3265.05 330.461 3219.99 327.68C3201.35 326.453 3189.28 316.641 3189.28 301.262 3189.28 283.137 3202.87 274.066 3220.73 274.066 3252.46 274.066 3265.05 299.75 3265.05 323.926V330.461ZM3201.63 438.473H3216.71V422.617H3201.63V438.473ZM3247.93 438.473H3263.28V422.617H3247.93V438.473" fill="#231f20"/>
<path transform="matrix(.1,0,0,-.1,0,55)" d="M3365.48 264C3342.07 264 3332.99 278.867 3332.99 300.766V380.074H3307.82V391.645H3332.99V426.406L3345.58 429.418V391.645H3384.6V380.074H3345.58V301.262C3345.58 286.406 3349.6 275.813 3366.5 275.813 3373.27 275.813 3379.58 276.855 3386.38 278.109V267.02C3379.33 265.508 3372.52 264 3365.48 264" fill="#231f20"/>
<path transform="matrix(.1,0,0,-.1,0,55)" d="M975.793 3.26563 974.297 25.4141C967.477 9.80469 949.355 0 932.488 0 918.148 0 907.32 4.51172 899.008 11.8242 884.906 24.1484 878.363 44.3125 878.363 65.9375 878.363 86.5859 884.668 106.738 898.004 119.324 906.305 127.363 917.641 132.434 932.23 132.434 950.129 132.434 967.477 122.352 974.297 107.984V185.027H986.863V3.26563H975.793ZM958.672 110.266C952.387 116.293 943.824 120.078 932.23 120.078 920.398 120.078 911.852 115.801 905.305 108.992 895.473 98.4375 891.199 82.3047 891.199 66.2109 891.199 48.3125 896.227 31.4531 907.816 21.1289 914.117 15.5898 922.164 12.3125 932.766 12.3125 943.824 12.3125 952.129 16.3633 958.414 22.4102 969.758 33.4414 974.547 48.8242 974.547 66.2109 974.547 84.8398 970.266 99.4336 958.672 110.266" fill="#231f20"/>
<path transform="matrix(.1,0,0,-.1,0,55)" d="M1117.28 15.0938C1108.47 6.28906 1096.15 0 1080.54 0 1064.92 0 1052.6 6.28906 1043.75 15.0938 1030.67 28.1758 1025.91 44.7891 1025.91 66.2109 1025.91 87.6016 1030.67 104.238 1043.75 117.313 1052.6 126.137 1064.92 132.434 1080.54 132.434 1096.15 132.434 1108.47 126.137 1117.28 117.313 1130.38 104.238 1135.16 87.6016 1135.16 66.2109 1135.16 44.7891 1130.38 28.1758 1117.28 15.0938ZM1108.23 108.992C1101.69 115.801 1092.61 120.078 1080.54 120.078 1068.47 120.078 1059.38 115.801 1052.84 108.992 1041.51 97.1563 1038.74 82.5625 1038.74 66.2109 1038.74 49.8477 1041.51 35.2266 1052.84 23.3984 1059.38 16.5938 1068.47 12.3125 1080.54 12.3125 1092.61 12.3125 1101.69 16.5938 1108.23 23.3984 1119.57 35.2266 1122.31 49.8477 1122.31 66.2109 1122.31 82.5625 1119.57 97.1563 1108.23 108.992" fill="#231f20"/>
<path transform="matrix(.1,0,0,-.1,0,55)" d="M1226.8 118.328C1195.32 118.328 1186.77 90.1055 1186.77 63.668V3.26563H1174.18V129.16H1185.24L1186.77 103.707C1192.31 121.098 1209.17 130.41 1226.8 130.41 1230.83 130.41 1235.11 130.41 1239.14 129.633V117.051C1235.11 118.059 1230.83 118.328 1226.8 118.328" fill="#231f20"/>
<path transform="matrix(.1,0,0,-.1,0,55)" d="M1311.32 1.48438C1287.92 1.48438 1278.85 16.3633 1278.85 38.2539V117.578H1253.68V129.16H1278.85V163.887L1291.45 166.93V129.16H1330.47V117.578H1291.45V38.7539C1291.45 23.9219 1295.44 13.3359 1312.35 13.3359 1319.14 13.3359 1325.44 14.3242 1332.22 15.5898V4.51172C1325.18 3.00781 1318.37 1.48438 1311.32 1.48438" fill="#231f20"/>
<path transform="matrix(.1,0,0,-.1,0,55)" d="M1526.1 3.26563V85.5859C1526.1 107.496 1518.03 120.566 1496.12 120.566 1486.56 120.566 1479.51 117.313 1473.72 112.012 1463.9 102.695 1458.87 89.6289 1458.87 74.4883V3.26563H1446.03V85.5859C1446.03 107.496 1437.72 120.566 1415.82 120.566 1406.25 120.566 1398.94 117.313 1393.4 112.012 1382.07 101.5 1378.3 84.0703 1378.3 66.2109V3.26563H1365.72V129.16H1376.8L1378.3 107.496C1384.85 121.84 1398.45 132.434 1416.55 132.434 1438.49 132.434 1451.31 121.605 1456.35 105.227 1462.9 120.824 1476.24 132.434 1496.89 132.434 1526.34 132.434 1538.69 113.293 1538.69 86.3398V3.26563H1526.1" fill="#231f20"/>
<path transform="matrix(.1,0,0,-.1,0,55)" d="M1671.88 3.51172 1670.34 26.4219C1663.29 10.3125 1645.43 .21875 1627.8 .21875 1598.84 .21875 1583.49 18.1133 1583.49 46.3281V129.387H1596.08V47.0703C1596.08 25.168 1605.65 12.582 1628.56 12.582 1659.53 12.582 1670.34 39.2734 1670.34 66.4531V129.387H1682.94V3.51172H1671.88" fill="#231f20"/>
<path transform="matrix(.1,0,0,-.1,0,55)" d="M1819.65 3.26563V85.5859C1819.65 107.496 1810.08 120.078 1787.19 120.078 1756.21 120.078 1745.38 93.3906 1745.38 66.2109V3.26563H1732.8V129.16H1743.87L1745.38 106.234C1752.44 122.102 1770.31 132.434 1787.93 132.434 1816.9 132.434 1832.26 114.527 1832.26 86.3398V3.26563H1819.65" fill="#231f20"/>
<path transform="matrix(.1,0,0,-.1,0,55)" d="M1965.69 3.26563 1964.17 25.4141C1957.39 9.80469 1939.25 0 1922.36 0 1908.02 0 1897.2 4.51172 1888.87 11.8242 1874.78 24.1484 1868.24 44.3125 1868.24 65.9375 1868.24 86.5859 1874.55 106.738 1887.9 119.324 1896.21 127.363 1907.51 132.434 1922.12 132.434 1940 132.434 1957.39 122.352 1964.17 107.984V185.027H1976.77V3.26563H1965.69ZM1948.54 110.266C1942.25 116.293 1933.7 120.078 1922.12 120.078 1910.29 120.078 1901.73 115.801 1895.18 108.992 1885.37 98.4375 1881.07 82.3047 1881.07 66.2109 1881.07 48.3125 1886.13 31.4531 1897.68 21.1289 1903.99 15.5898 1912.05 12.3125 1922.63 12.3125 1933.7 12.3125 1942.01 16.3633 1948.3 22.4102 1959.63 33.4414 1964.43 48.8242 1964.43 66.2109 1964.43 84.8398 1960.14 99.4336 1948.54 110.266" fill="#231f20"/>
</svg>
